<svg width="800" height="600" xmlns="http://www.w3.org/2000/svg">
  <!-- Background -->
  <rect width="800" height="600" fill="#ffffff"/>
  
  <!-- Header -->
  <rect x="0" y="0" width="800" height="70" fill="#1f2937"/>
  <text x="40" y="30" font-family="Arial, sans-serif" font-size="20" font-weight="bold" fill="white">ShopMaster</text>
  <text x="40" y="50" font-family="Arial, sans-serif" font-size="12" fill="#9ca3af">Enterprise E-Commerce Platform</text>
  
  <!-- Navigation -->
  <rect x="0" y="70" width="800" height="40" fill="#374151"/>
  <text x="40" y="90" font-family="Arial, sans-serif" font-size="12" fill="white">Home</text>
  <text x="100" y="90" font-family="Arial, sans-serif" font-size="12" fill="white">Products</text>
  <text x="170" y="90" font-family="Arial, sans-serif" font-size="12" fill="white">Categories</text>
  <text x="260" y="90" font-family="Arial, sans-serif" font-size="12" fill="white">Orders</text>
  <text x="320" y="90" font-family="Arial, sans-serif" font-size="12" fill="white">Analytics</text>
  
  <!-- Search Bar -->
  <rect x="500" y="80" width="200" height="20" fill="white" stroke="#d1d5db" rx="10"/>
  <text x="510" y="92" font-family="Arial, sans-serif" font-size="10" fill="#6b7280">Search products...</text>
  
  <!-- Cart Icon -->
  <rect x="720" y="80" width="60" height="20" fill="#3b82f6" rx="10"/>
  <text x="735" y="92" font-family="Arial, sans-serif" font-size="10" fill="white">Cart (3)</text>
  
  <!-- Main Content -->
  <rect x="20" y="130" width="760" height="450" fill="#f9fafb"/>
  
  <!-- Hero Banner -->
  <rect x="40" y="150" width="720" height="120" fill="#6366f1" rx="8"/>
  <text x="60" y="180" font-family="Arial, sans-serif" font-size="24" font-weight="bold" fill="white">Winter Sale</text>
  <text x="60" y="205" font-family="Arial, sans-serif" font-size="14" fill="white">Up to 50% off on selected items</text>
  <rect x="60" y="220" width="100" height="30" fill="white" rx="15"/>
  <text x="85" y="238" font-family="Arial, sans-serif" font-size="12" font-weight="bold" fill="#6366f1">Shop Now</text>
  
  <!-- Product Grid -->
  <text x="40" y="300" font-family="Arial, sans-serif" font-size="18" font-weight="bold" fill="#1f2937">Featured Products</text>
  
  <!-- Product 1 -->
  <rect x="40" y="320" width="170" height="220" fill="white" stroke="#e5e7eb" rx="8"/>
  <rect x="50" y="330" width="150" height="120" fill="#f3f4f6" rx="4"/>
  <text x="60" y="470" font-family="Arial, sans-serif" font-size="14" font-weight="bold" fill="#1f2937">Laptop Pro</text>
  <text x="60" y="490" font-family="Arial, sans-serif" font-size="12" fill="#6b7280">High-performance laptop</text>
  <text x="60" y="510" font-family="Arial, sans-serif" font-size="16" font-weight="bold" fill="#059669">$1,299</text>
  <rect x="140" y="500" width="60" height="25" fill="#3b82f6" rx="12"/>
  <text x="155" y="515" font-family="Arial, sans-serif" font-size="10" fill="white">Add to Cart</text>
  
  <!-- Product 2 -->
  <rect x="230" y="320" width="170" height="220" fill="white" stroke="#e5e7eb" rx="8"/>
  <rect x="240" y="330" width="150" height="120" fill="#f3f4f6" rx="4"/>
  <text x="250" y="470" font-family="Arial, sans-serif" font-size="14" font-weight="bold" fill="#1f2937">Smartphone X</text>
  <text x="250" y="490" font-family="Arial, sans-serif" font-size="12" fill="#6b7280">Latest flagship phone</text>
  <text x="250" y="510" font-family="Arial, sans-serif" font-size="16" font-weight="bold" fill="#059669">$899</text>
  <rect x="330" y="500" width="60" height="25" fill="#3b82f6" rx="12"/>
  <text x="345" y="515" font-family="Arial, sans-serif" font-size="10" fill="white">Add to Cart</text>
  
  <!-- Product 3 -->
  <rect x="420" y="320" width="170" height="220" fill="white" stroke="#e5e7eb" rx="8"/>
  <rect x="430" y="330" width="150" height="120" fill="#f3f4f6" rx="4"/>
  <text x="440" y="470" font-family="Arial, sans-serif" font-size="14" font-weight="bold" fill="#1f2937">Headphones</text>
  <text x="440" y="490" font-family="Arial, sans-serif" font-size="12" fill="#6b7280">Wireless noise-canceling</text>
  <text x="440" y="510" font-family="Arial, sans-serif" font-size="16" font-weight="bold" fill="#059669">$299</text>
  <rect x="520" y="500" width="60" height="25" fill="#3b82f6" rx="12"/>
  <text x="535" y="515" font-family="Arial, sans-serif" font-size="10" fill="white">Add to Cart</text>
  
  <!-- Product 4 -->
  <rect x="610" y="320" width="170" height="220" fill="white" stroke="#e5e7eb" rx="8"/>
  <rect x="620" y="330" width="150" height="120" fill="#f3f4f6" rx="4"/>
  <text x="630" y="470" font-family="Arial, sans-serif" font-size="14" font-weight="bold" fill="#1f2937">Smart Watch</text>
  <text x="630" y="490" font-family="Arial, sans-serif" font-size="12" fill="#6b7280">Fitness tracking watch</text>
  <text x="630" y="510" font-family="Arial, sans-serif" font-size="16" font-weight="bold" fill="#059669">$399</text>
  <rect x="710" y="500" width="60" height="25" fill="#3b82f6" rx="12"/>
  <text x="725" y="515" font-family="Arial, sans-serif" font-size="10" fill="white">Add to Cart</text>
  
  <!-- Laravel Badge -->
  <text x="680" y="590" font-family="Arial, sans-serif" font-size="12" font-weight="bold" fill="#ff2d20">Built with Laravel</text>
</svg>
