<svg width="800" height="600" xmlns="http://www.w3.org/2000/svg">
  <!-- Background -->
  <rect width="800" height="600" fill="#f9fafb"/>
  
  <!-- Header -->
  <rect x="0" y="0" width="800" height="70" fill="#111827"/>
  <text x="30" y="30" font-family="Arial, sans-serif" font-size="20" font-weight="bold" fill="white">ProjectFlow</text>
  <text x="30" y="50" font-family="Arial, sans-serif" font-size="12" fill="#9ca3af">Real-Time Project Management</text>
  
  <!-- Top Navigation -->
  <rect x="0" y="70" width="800" height="40" fill="#1f2937"/>
  <text x="30" y="90" font-family="Arial, sans-serif" font-size="12" fill="white">Dashboard</text>
  <text x="120" y="90" font-family="Arial, sans-serif" font-size="12" fill="white">Projects</text>
  <text x="190" y="90" font-family="Arial, sans-serif" font-size="12" fill="white">Team</text>
  <text x="240" y="90" font-family="Arial, sans-serif" font-size="12" fill="white">Reports</text>
  
  <!-- Live indicator -->
  <circle cx="720" cy="90" r="4" fill="#10b981"/>
  <text x="730" y="94" font-family="Arial, sans-serif" font-size="11" fill="white">Live</text>
  
  <!-- Project Header -->
  <rect x="20" y="130" width="760" height="50" fill="white" stroke="#e5e7eb" rx="8"/>
  <text x="40" y="150" font-family="Arial, sans-serif" font-size="18" font-weight="bold" fill="#111827">Website Redesign Project</text>
  <text x="40" y="170" font-family="Arial, sans-serif" font-size="12" fill="#6b7280">Due: March 15, 2024 • Team: 6 members • Progress: 65%</text>
  
  <!-- Kanban Board -->
  <text x="40" y="210" font-family="Arial, sans-serif" font-size="16" font-weight="bold" fill="#111827">Kanban Board</text>
  
  <!-- Column 1: To Do -->
  <rect x="40" y="230" width="170" height="320" fill="#f3f4f6" stroke="#d1d5db" rx="8"/>
  <rect x="50" y="240" width="150" height="30" fill="#6b7280" rx="4"/>
  <text x="110" y="258" font-family="Arial, sans-serif" font-size="12" font-weight="bold" fill="white">To Do (4)</text>
  
  <!-- Task Cards in To Do -->
  <rect x="55" y="280" width="140" height="60" fill="white" stroke="#e5e7eb" rx="4"/>
  <text x="65" y="295" font-family="Arial, sans-serif" font-size="11" font-weight="bold" fill="#111827">User Research</text>
  <text x="65" y="310" font-family="Arial, sans-serif" font-size="9" fill="#6b7280">Conduct user interviews</text>
  <rect x="65" y="320" width="40" height="15" fill="#ef4444" rx="7"/>
  <text x="75" y="330" font-family="Arial, sans-serif" font-size="8" fill="white">High</text>
  
  <rect x="55" y="350" width="140" height="60" fill="white" stroke="#e5e7eb" rx="4"/>
  <text x="65" y="365" font-family="Arial, sans-serif" font-size="11" font-weight="bold" fill="#111827">Wireframes</text>
  <text x="65" y="380" font-family="Arial, sans-serif" font-size="9" fill="#6b7280">Create initial wireframes</text>
  <rect x="65" y="390" width="40" height="15" fill="#f59e0b" rx="7"/>
  <text x="75" y="400" font-family="Arial, sans-serif" font-size="8" fill="white">Med</text>
  
  <!-- Column 2: In Progress -->
  <rect x="230" y="230" width="170" height="320" fill="#fef3c7" stroke="#f59e0b" rx="8"/>
  <rect x="240" y="240" width="150" height="30" fill="#f59e0b" rx="4"/>
  <text x="295" y="258" font-family="Arial, sans-serif" font-size="12" font-weight="bold" fill="white">In Progress (3)</text>
  
  <!-- Task Cards in Progress -->
  <rect x="245" y="280" width="140" height="60" fill="white" stroke="#e5e7eb" rx="4"/>
  <text x="255" y="295" font-family="Arial, sans-serif" font-size="11" font-weight="bold" fill="#111827">Homepage Design</text>
  <text x="255" y="310" font-family="Arial, sans-serif" font-size="9" fill="#6b7280">Design new homepage</text>
  <circle cx="370" cy="325" r="3" fill="#10b981"/>
  <text x="255" y="335" font-family="Arial, sans-serif" font-size="8" fill="#6b7280">Sarah working...</text>
  
  <rect x="245" y="350" width="140" height="60" fill="white" stroke="#e5e7eb" rx="4"/>
  <text x="255" y="365" font-family="Arial, sans-serif" font-size="11" font-weight="bold" fill="#111827">API Integration</text>
  <text x="255" y="380" font-family="Arial, sans-serif" font-size="9" fill="#6b7280">Connect frontend to API</text>
  <circle cx="370" cy="395" r="3" fill="#10b981"/>
  <text x="255" y="405" font-family="Arial, sans-serif" font-size="8" fill="#6b7280">Mike coding...</text>
  
  <!-- Column 3: Review -->
  <rect x="420" y="230" width="170" height="320" fill="#dbeafe" stroke="#3b82f6" rx="8"/>
  <rect x="430" y="240" width="150" height="30" fill="#3b82f6" rx="4"/>
  <text x="485" y="258" font-family="Arial, sans-serif" font-size="12" font-weight="bold" fill="white">Review (2)</text>
  
  <!-- Task Cards in Review -->
  <rect x="435" y="280" width="140" height="60" fill="white" stroke="#e5e7eb" rx="4"/>
  <text x="445" y="295" font-family="Arial, sans-serif" font-size="11" font-weight="bold" fill="#111827">Logo Design</text>
  <text x="445" y="310" font-family="Arial, sans-serif" font-size="9" fill="#6b7280">New brand logo</text>
  <rect x="445" y="320" width="50" height="15" fill="#3b82f6" rx="7"/>
  <text x="455" y="330" font-family="Arial, sans-serif" font-size="8" fill="white">Review</text>
  
  <!-- Column 4: Done -->
  <rect x="610" y="230" width="170" height="320" fill="#dcfce7" stroke="#10b981" rx="8"/>
  <rect x="620" y="240" width="150" height="30" fill="#10b981" rx="4"/>
  <text x="680" y="258" font-family="Arial, sans-serif" font-size="12" font-weight="bold" fill="white">Done (5)</text>
  
  <!-- Task Cards in Done -->
  <rect x="625" y="280" width="140" height="60" fill="white" stroke="#e5e7eb" rx="4"/>
  <text x="635" y="295" font-family="Arial, sans-serif" font-size="11" font-weight="bold" fill="#111827">Project Setup</text>
  <text x="635" y="310" font-family="Arial, sans-serif" font-size="9" fill="#6b7280">Initialize repository</text>
  <rect x="635" y="320" width="40" height="15" fill="#10b981" rx="7"/>
  <text x="645" y="330" font-family="Arial, sans-serif" font-size="8" fill="white">Done</text>
  
  <rect x="625" y="350" width="140" height="60" fill="white" stroke="#e5e7eb" rx="4"/>
  <text x="635" y="365" font-family="Arial, sans-serif" font-size="11" font-weight="bold" fill="#111827">Database Schema</text>
  <text x="635" y="380" font-family="Arial, sans-serif" font-size="9" fill="#6b7280">Design data structure</text>
  <rect x="635" y="390" width="40" height="15" fill="#10b981" rx="7"/>
  <text x="645" y="400" font-family="Arial, sans-serif" font-size="8" fill="white">Done</text>
  
  <!-- Team Activity -->
  <text x="40" y="580" font-family="Arial, sans-serif" font-size="14" font-weight="bold" fill="#111827">Recent Activity</text>
  <text x="200" y="580" font-family="Arial, sans-serif" font-size="11" fill="#6b7280">• Sarah moved "Homepage Design" to In Progress</text>
  <text x="450" y="580" font-family="Arial, sans-serif" font-size="11" fill="#6b7280">• Mike completed "Database Schema"</text>
  
  <!-- Laravel Echo Badge -->
  <text x="650" y="590" font-family="Arial, sans-serif" font-size="12" font-weight="bold" fill="#ff2d20">Laravel Echo + WebSockets</text>
</svg>
