<svg width="800" height="600" xmlns="http://www.w3.org/2000/svg">
  <!-- Background -->
  <rect width="800" height="600" fill="#f8fafc"/>
  
  <!-- Header -->
  <rect x="0" y="0" width="800" height="80" fill="#1e293b"/>
  <text x="40" y="35" font-family="Arial, sans-serif" font-size="18" font-weight="bold" fill="white">SaaS Platform Dashboard</text>
  <text x="40" y="55" font-family="Arial, sans-serif" font-size="12" fill="#94a3b8">Multi-Tenant Management System</text>
  
  <!-- Sidebar -->
  <rect x="0" y="80" width="200" height="520" fill="#334155"/>
  <text x="20" y="110" font-family="Arial, sans-serif" font-size="14" font-weight="bold" fill="white">Navigation</text>
  <text x="20" y="140" font-family="Arial, sans-serif" font-size="12" fill="#cbd5e1">Dashboard</text>
  <text x="20" y="165" font-family="Arial, sans-serif" font-size="12" fill="#cbd5e1">Tenants</text>
  <text x="20" y="190" font-family="Arial, sans-serif" font-size="12" fill="#cbd5e1">Subscriptions</text>
  <text x="20" y="215" font-family="Arial, sans-serif" font-size="12" fill="#cbd5e1">Analytics</text>
  <text x="20" y="240" font-family="Arial, sans-serif" font-size="12" fill="#cbd5e1">Settings</text>
  
  <!-- Main Content -->
  <rect x="220" y="100" width="560" height="480" fill="white"/>
  
  <!-- Stats Cards -->
  <rect x="240" y="120" width="160" height="100" fill="#3b82f6" rx="8"/>
  <text x="250" y="145" font-family="Arial, sans-serif" font-size="12" fill="white">Active Tenants</text>
  <text x="250" y="185" font-family="Arial, sans-serif" font-size="28" font-weight="bold" fill="white">247</text>
  
  <rect x="420" y="120" width="160" height="100" fill="#10b981" rx="8"/>
  <text x="430" y="145" font-family="Arial, sans-serif" font-size="12" fill="white">Monthly Revenue</text>
  <text x="430" y="185" font-family="Arial, sans-serif" font-size="28" font-weight="bold" fill="white">$12.4K</text>
  
  <rect x="600" y="120" width="160" height="100" fill="#f59e0b" rx="8"/>
  <text x="610" y="145" font-family="Arial, sans-serif" font-size="12" fill="white">API Requests</text>
  <text x="610" y="185" font-family="Arial, sans-serif" font-size="28" font-weight="bold" fill="white">1.2M</text>
  
  <!-- Tenant List -->
  <text x="240" y="260" font-family="Arial, sans-serif" font-size="16" font-weight="bold" fill="#1e293b">Recent Tenants</text>
  
  <!-- Table Header -->
  <rect x="240" y="280" width="520" height="40" fill="#f1f5f9"/>
  <text x="250" y="300" font-family="Arial, sans-serif" font-size="12" font-weight="bold" fill="#475569">Tenant Name</text>
  <text x="400" y="300" font-family="Arial, sans-serif" font-size="12" font-weight="bold" fill="#475569">Plan</text>
  <text x="500" y="300" font-family="Arial, sans-serif" font-size="12" font-weight="bold" fill="#475569">Status</text>
  <text x="600" y="300" font-family="Arial, sans-serif" font-size="12" font-weight="bold" fill="#475569">Created</text>
  
  <!-- Table Rows -->
  <rect x="240" y="320" width="520" height="40" fill="white"/>
  <text x="250" y="340" font-family="Arial, sans-serif" font-size="12" fill="#334155">Acme Corp</text>
  <text x="400" y="340" font-family="Arial, sans-serif" font-size="12" fill="#334155">Enterprise</text>
  <rect x="500" y="330" width="60" height="20" fill="#10b981" rx="10"/>
  <text x="515" y="342" font-family="Arial, sans-serif" font-size="10" fill="white">Active</text>
  <text x="600" y="340" font-family="Arial, sans-serif" font-size="12" fill="#334155">2024-01-15</text>
  
  <rect x="240" y="360" width="520" height="40" fill="#f8fafc"/>
  <text x="250" y="380" font-family="Arial, sans-serif" font-size="12" fill="#334155">TechStart Inc</text>
  <text x="400" y="380" font-family="Arial, sans-serif" font-size="12" fill="#334155">Professional</text>
  <rect x="500" y="370" width="60" height="20" fill="#10b981" rx="10"/>
  <text x="515" y="382" font-family="Arial, sans-serif" font-size="10" fill="white">Active</text>
  <text x="600" y="380" font-family="Arial, sans-serif" font-size="12" fill="#334155">2024-01-12</text>
  
  <rect x="240" y="400" width="520" height="40" fill="white"/>
  <text x="250" y="420" font-family="Arial, sans-serif" font-size="12" fill="#334155">Global Solutions</text>
  <text x="400" y="420" font-family="Arial, sans-serif" font-size="12" fill="#334155">Basic</text>
  <rect x="500" y="410" width="60" height="20" fill="#f59e0b" rx="10"/>
  <text x="515" y="422" font-family="Arial, sans-serif" font-size="10" fill="white">Trial</text>
  <text x="600" y="420" font-family="Arial, sans-serif" font-size="12" fill="#334155">2024-01-10</text>
  
  <!-- Laravel Logo -->
  <text x="680" y="570" font-family="Arial, sans-serif" font-size="12" font-weight="bold" fill="#ff2d20">Laravel</text>
</svg>
